<svg width="207" height="30" viewBox="0 0 207 30" fill="none" xmlns="http://www.w3.org/2000/svg">
<path fill-rule="evenodd" clip-rule="evenodd" d="M0 3.8403e-07L30.0045 0V30H0V3.8403e-07ZM26.9358 3.06818V26.9318H3.06864V3.06818H26.9358Z" fill="#F2F2F2"/>
<path d="M54.8457 17.6409H51.6139C51.1444 20.5684 49.1832 22.2531 46.4763 22.2531C42.8854 22.2531 40.5375 19.4637 40.5375 15.0172C40.5375 10.626 42.8025 7.78131 46.2829 7.78131C49.1003 7.78131 50.951 9.43838 51.4758 12.4211H54.7076C54.0723 8.05749 50.5643 5.21284 46.1724 5.21284C40.8966 5.21284 37.2505 9.57647 37.2505 15.0172C37.2505 20.6237 40.9795 24.8216 46.2553 24.8216C50.6472 24.8216 54.1828 22.0046 54.8457 17.6409Z" fill="#F2F2F2"/>
<path fill-rule="evenodd" clip-rule="evenodd" d="M69.6751 17.6409C69.6751 13.9125 67.1063 10.4602 62.9077 10.4602C58.7092 10.4602 56.1403 13.9125 56.1403 17.6409C56.1403 21.3693 58.7092 24.8216 62.9077 24.8216C67.1063 24.8216 69.6751 21.3693 69.6751 17.6409ZM59.3168 17.6409C59.3168 14.6858 60.6151 12.6973 62.9077 12.6973C65.228 12.6973 66.5262 14.6858 66.5262 17.6409C66.5262 20.5684 65.228 22.5845 62.9077 22.5845C60.6151 22.5845 59.3168 20.5684 59.3168 17.6409Z" fill="#F2F2F2"/>
<path fill-rule="evenodd" clip-rule="evenodd" d="M81.4244 21.6455H81.3415C80.6786 23.5512 79.0765 24.8216 76.9773 24.8216C73.2207 24.8216 71.1766 21.5074 71.1766 17.6409C71.1766 13.7744 73.3035 10.4602 76.9773 10.4602C79.0765 10.4602 80.6786 11.7031 81.3415 13.6087H81.4244V5.48902H84.38V24.5454H81.4244V21.6455ZM77.944 12.6973C75.6514 12.6973 74.3532 14.6858 74.3532 17.6409C74.3532 20.5684 75.6514 22.5845 77.944 22.5845C80.2643 22.5845 81.5349 20.5684 81.5349 17.6409C81.5349 14.6858 80.2643 12.6973 77.944 12.6973Z" fill="#F2F2F2"/>
<path fill-rule="evenodd" clip-rule="evenodd" d="M99.2395 20.2646H96.2287C95.8973 21.3693 95.1239 22.5845 93.3284 22.5845C91.2292 22.5845 89.7652 21.1208 89.6271 18.6075H99.4881C99.9025 13.802 97.1955 10.4602 93.0798 10.4602C88.9641 10.4602 86.6163 13.8296 86.6163 17.6409C86.6163 21.4522 89.0194 24.8216 93.1351 24.8216C96.505 24.8216 98.6595 22.9988 99.2395 20.2646ZM93.0798 12.6973C95.0962 12.6973 96.284 14.1334 96.4773 16.3705H89.6547C89.8481 14.1334 91.0634 12.6973 93.0798 12.6973Z" fill="#F2F2F2"/>
<path d="M111.143 13.5811C114.734 14.4096 116.529 16.2876 116.529 19.298C116.529 22.4741 113.436 24.8216 109.016 24.8216C103.961 24.8216 101.227 21.2865 100.923 17.8342H104.155C104.348 20.3199 106.365 22.2531 109.044 22.2531C111.475 22.2531 113.27 21.2036 113.27 19.4361C113.27 17.8895 112.11 17.0609 109.652 16.481L106.889 15.8457C103.16 14.962 101.31 13.222 101.31 10.5707C101.31 7.36704 104.459 5.21284 108.298 5.21284C113.16 5.21284 115.646 7.86416 115.977 11.1507H112.745C112.497 8.88602 110.591 7.78131 108.353 7.78131C106.171 7.78131 104.597 8.72032 104.597 10.3498C104.597 11.6478 105.563 12.2554 108.381 12.9182L111.143 13.5811Z" fill="#F2F2F2"/>
<path fill-rule="evenodd" clip-rule="evenodd" d="M128.148 21.6455H128.231V24.5454H131.186V10.7364H128.231V13.6087H128.148C127.485 11.7031 125.883 10.4602 123.784 10.4602C120.11 10.4602 117.983 13.7744 117.983 17.6409C117.983 21.5074 120.027 24.8216 123.784 24.8216C125.883 24.8216 127.485 23.5512 128.148 21.6455ZM121.16 17.6409C121.16 14.6858 122.485 12.6973 124.723 12.6973C126.96 12.6973 128.341 14.6858 128.341 17.6409C128.341 20.5684 126.96 22.5845 124.723 22.5845C122.513 22.5845 121.16 20.5684 121.16 17.6409Z" fill="#F2F2F2"/>
<path d="M137.207 16.26V24.5454H134.196V10.7364H137.124V13.443H137.179C137.759 11.5097 139.196 10.4602 141.212 10.4602C144.251 10.4602 145.742 12.5316 145.742 15.5696V24.5454H142.731V16.4533C142.731 13.8849 141.82 12.7249 139.969 12.7249C138.118 12.7249 137.207 13.9953 137.207 16.26Z" fill="#F2F2F2"/>
<path fill-rule="evenodd" clip-rule="evenodd" d="M158.057 21.6455H158.14V24.5454H161.096V5.48902H158.14V13.6087H158.057C157.395 11.7031 155.792 10.4602 153.693 10.4602C150.019 10.4602 147.893 13.7744 147.893 17.6409C147.893 21.5074 149.937 24.8216 153.693 24.8216C155.792 24.8216 157.395 23.5512 158.057 21.6455ZM151.069 17.6409C151.069 14.6858 152.367 12.6973 154.66 12.6973C156.98 12.6973 158.251 14.6858 158.251 17.6409C158.251 20.5684 156.98 22.5845 154.66 22.5845C152.367 22.5845 151.069 20.5684 151.069 17.6409Z" fill="#F2F2F2"/>
<path fill-rule="evenodd" clip-rule="evenodd" d="M171.508 10.4602C175.182 10.4602 177.309 13.7744 177.309 17.6409C177.309 21.5074 175.265 24.8216 171.508 24.8216C169.409 24.8216 167.807 23.5512 167.144 21.6455H167.061V24.5454H164.106V5.48902H167.061V13.6087H167.144C167.807 11.7031 169.409 10.4602 171.508 10.4602ZM170.542 12.6973C168.221 12.6973 166.951 14.6858 166.951 17.6409C166.951 20.5684 168.221 22.5845 170.542 22.5845C172.834 22.5845 174.132 20.5684 174.132 17.6409C174.132 14.6858 172.834 12.6973 170.542 12.6973Z" fill="#F2F2F2"/>
<path fill-rule="evenodd" clip-rule="evenodd" d="M192.361 17.6409C192.361 13.9125 189.792 10.4602 185.594 10.4602C181.395 10.4602 178.826 13.9125 178.826 17.6409C178.826 21.3693 181.395 24.8216 185.594 24.8216C189.792 24.8216 192.361 21.3693 192.361 17.6409ZM182.003 17.6409C182.003 14.6858 183.301 12.6973 185.594 12.6973C187.914 12.6973 189.212 14.6858 189.212 17.6409C189.212 20.5684 187.914 22.5845 185.594 22.5845C183.301 22.5845 182.003 20.5684 182.003 17.6409Z" fill="#F2F2F2"/>
<path d="M199.102 19.1875L195.428 24.5454H192.031L197.334 17.1162L192.721 10.7364H196.119L199.102 15.0448L202.085 10.7364H205.455L200.87 17.0886L206.146 24.5454H202.776L199.102 19.1875Z" fill="#F2F2F2"/>
</svg>
